# xmcd
#
# Track frame offsets: 
#        150
#        2250
#        6450
#        23250
#        43425
#        57900
#        60375
#        73575
#        94575
#        97275
#        113100
#        130425
#        146850
#        150450
#        164250
#        168225
#        184468
#        203741
#        206470
#
# Disc length: 3178 seconds
#
# Revision: 0
# Processed by: cddbd v1.5.2PL0 Copyright (c) Steve Scherf et al.
# Submitted via: ExactAudioCopy v1.0b3
#
DISCID=050c6813
DTITLE=Dan Hicks and His Hot Licks - KSAN Studios, San Francisco - July 
DTITLE=4th 1971
DYEAR=2014
DGENRE=Country
TTITLE0=KSAN Promo Jingle
TTITLE1=Tom Donahue Intro...Commercial
TTITLE2=Evenin' Breeze
TTITLE3=Woe The Luck
TTITLE4=Where's The Money
TTITLE5=Dan Talks
TTITLE6=The Buzzard Was Their Friend
TTITLE7=News From Up The Street
TTITLE8=Dan Talks
TTITLE9=I Feel Like Singing
TTITLE10=Presently In The Past
TTITLE11=The Rounder
TTITLE12=Dan Talks
TTITLE13=Is This My Happy Home?
TTITLE14=Dan Talks
TTITLE15=Shorty Falls In Love
TTITLE16=He Don't Care
TTITLE17=Dan Talks
TTITLE18=I Scare Myself
EXTD=
EXTT0=
EXTT1=
EXTT2=
EXTT3=
EXTT4=
EXTT5=
EXTT6=
EXTT7=
EXTT8=
EXTT9=
EXTT10=
EXTT11=
EXTT12=
EXTT13=
EXTT14=
EXTT15=
EXTT16=
EXTT17=
EXTT18=
PLAYORDER=
